<mxfile host="Electron" modified="2024-01-23T10:34:21.335Z" agent="Mozilla/5.0 (Windows NT 10.0; Win64; x64) AppleWebKit/537.36 (KHTML, like Gecko) draw.io/22.1.21 Chrome/120.0.6099.109 Electron/28.1.0 Safari/537.36" etag="tzCNtrCJYiLrkJGjNkq0" version="22.1.21" type="device" pages="2">
  <diagram name="Sayfa -1" id="U9948sUQ6XA53Wcn0Kag">
    <mxGraphModel dx="1733" dy="1180" grid="1" gridSize="10" guides="1" tooltips="1" connect="1" arrows="1" fold="1" page="1" pageScale="1" pageWidth="1169" pageHeight="827" math="0" shadow="0">
      <root>
        <mxCell id="0" />
        <mxCell id="1" parent="0" />
        <mxCell id="ErLo5owCoa9dXtRcaDhM-5" value="" style="group" parent="1" vertex="1" connectable="0">
          <mxGeometry x="690" y="20" width="120" height="150" as="geometry" />
        </mxCell>
        <mxCell id="ErLo5owCoa9dXtRcaDhM-2" value="&lt;b style=&quot;border-color: var(--border-color);&quot;&gt;Ana Safya&lt;/b&gt;&lt;br style=&quot;border-color: var(--border-color);&quot;&gt;Tüm Success tarihe göre listelenecek" style="rounded=0;whiteSpace=wrap;html=1;verticalAlign=top;" parent="ErLo5owCoa9dXtRcaDhM-5" vertex="1">
          <mxGeometry width="120" height="90" as="geometry" />
        </mxCell>
        <mxCell id="ErLo5owCoa9dXtRcaDhM-4" value="&lt;b&gt;Navbar&lt;/b&gt;&lt;br&gt;Kullanıcı Giriş &lt;font color=&quot;#ff0000&quot;&gt;&lt;b&gt;Yapmamış&lt;/b&gt;&lt;/font&gt;" style="rounded=0;whiteSpace=wrap;html=1;" parent="ErLo5owCoa9dXtRcaDhM-5" vertex="1">
          <mxGeometry y="90" width="120" height="60" as="geometry" />
        </mxCell>
        <mxCell id="ErLo5owCoa9dXtRcaDhM-6" value="" style="group" parent="1" vertex="1" connectable="0">
          <mxGeometry x="570" y="485" width="120" height="150" as="geometry" />
        </mxCell>
        <mxCell id="ErLo5owCoa9dXtRcaDhM-7" value="&lt;b style=&quot;border-color: var(--border-color);&quot;&gt;Ana Safya&lt;/b&gt;&lt;br style=&quot;border-color: var(--border-color);&quot;&gt;Tüm Success tarihe göre listelenecek" style="rounded=0;whiteSpace=wrap;html=1;verticalAlign=top;" parent="ErLo5owCoa9dXtRcaDhM-6" vertex="1">
          <mxGeometry width="120" height="90" as="geometry" />
        </mxCell>
        <mxCell id="ErLo5owCoa9dXtRcaDhM-8" value="&lt;b&gt;Navbar&lt;/b&gt;&lt;br&gt;Kullanıcı Giriş &lt;font color=&quot;#66cc00&quot;&gt;&lt;b&gt;Yapılmış&lt;/b&gt;&lt;/font&gt;" style="rounded=0;whiteSpace=wrap;html=1;" parent="ErLo5owCoa9dXtRcaDhM-6" vertex="1">
          <mxGeometry y="90" width="120" height="60" as="geometry" />
        </mxCell>
        <mxCell id="ErLo5owCoa9dXtRcaDhM-9" value="" style="group" parent="1" vertex="1" connectable="0">
          <mxGeometry x="500" y="240" width="120" height="150" as="geometry" />
        </mxCell>
        <mxCell id="SocbjLumG32bId9NuuIr-17" value="" style="group" parent="ErLo5owCoa9dXtRcaDhM-9" vertex="1" connectable="0">
          <mxGeometry width="120" height="150" as="geometry" />
        </mxCell>
        <mxCell id="ErLo5owCoa9dXtRcaDhM-10" value="&lt;b style=&quot;border-color: var(--border-color);&quot;&gt;Kullanıcı Giriş&lt;br&gt;&lt;/b&gt;Kaydı olmayan kullanıcı için yönlendirme linki olacak." style="rounded=0;whiteSpace=wrap;html=1;verticalAlign=top;" parent="SocbjLumG32bId9NuuIr-17" vertex="1">
          <mxGeometry width="120" height="90" as="geometry" />
        </mxCell>
        <mxCell id="ErLo5owCoa9dXtRcaDhM-11" value="&lt;b&gt;Navbar&lt;/b&gt;&lt;br&gt;&lt;font color=&quot;#ff0000&quot;&gt;Sadece &lt;br&gt;Success Icon&lt;/font&gt;" style="rounded=0;whiteSpace=wrap;html=1;" parent="SocbjLumG32bId9NuuIr-17" vertex="1">
          <mxGeometry y="90" width="120" height="60" as="geometry" />
        </mxCell>
        <mxCell id="ErLo5owCoa9dXtRcaDhM-12" value="" style="group" parent="1" vertex="1" connectable="0">
          <mxGeometry x="630" y="240" width="120" height="150" as="geometry" />
        </mxCell>
        <mxCell id="ErLo5owCoa9dXtRcaDhM-13" value="&lt;b style=&quot;border-color: var(--border-color);&quot;&gt;Kullanıcı Kayıt&lt;br&gt;&lt;/b&gt;" style="rounded=0;whiteSpace=wrap;html=1;verticalAlign=top;" parent="ErLo5owCoa9dXtRcaDhM-12" vertex="1">
          <mxGeometry width="120" height="90" as="geometry" />
        </mxCell>
        <mxCell id="ErLo5owCoa9dXtRcaDhM-14" value="&lt;b style=&quot;border-color: var(--border-color);&quot;&gt;Navbar&lt;/b&gt;&lt;br style=&quot;border-color: var(--border-color);&quot;&gt;&lt;font style=&quot;border-color: var(--border-color);&quot; color=&quot;#ff0000&quot;&gt;Sadece&lt;br style=&quot;border-color: var(--border-color);&quot;&gt;Success Icon&lt;/font&gt;" style="rounded=0;whiteSpace=wrap;html=1;" parent="ErLo5owCoa9dXtRcaDhM-12" vertex="1">
          <mxGeometry y="90" width="120" height="60" as="geometry" />
        </mxCell>
        <mxCell id="ErLo5owCoa9dXtRcaDhM-27" value="&lt;font style=&quot;font-size: 14px;&quot;&gt;Giriş veya Kayıt&lt;br style=&quot;border-color: var(--border-color); font-size: 14px;&quot;&gt;&lt;span style=&quot;background-color: rgb(255, 255, 255); font-size: 14px;&quot;&gt;yapılınca&amp;nbsp;&lt;/span&gt;&lt;span style=&quot;background-color: rgb(255, 255, 255); font-size: 14px;&quot;&gt;ana sayfaya&amp;nbsp;&lt;/span&gt;&lt;span style=&quot;background-color: rgb(255, 255, 255); font-size: 14px;&quot;&gt;yönlenecek&lt;/span&gt;&lt;/font&gt;" style="text;html=1;strokeColor=none;fillColor=none;align=center;verticalAlign=middle;whiteSpace=wrap;rounded=0;fontSize=14;fontStyle=1" parent="1" vertex="1">
          <mxGeometry x="720" y="420" width="130" height="36" as="geometry" />
        </mxCell>
        <mxCell id="SocbjLumG32bId9NuuIr-3" value="" style="group" parent="1" vertex="1" connectable="0">
          <mxGeometry x="760" y="240" width="120" height="150" as="geometry" />
        </mxCell>
        <mxCell id="SocbjLumG32bId9NuuIr-4" value="&lt;b style=&quot;border-color: var(--border-color);&quot;&gt;Success Detay&lt;/b&gt;&lt;br style=&quot;border-color: var(--border-color);&quot;&gt;Kullanıcı grişi olmasa da başarılar görüntülenebilir." style="rounded=0;whiteSpace=wrap;html=1;verticalAlign=top;" parent="SocbjLumG32bId9NuuIr-3" vertex="1">
          <mxGeometry width="120" height="90" as="geometry" />
        </mxCell>
        <mxCell id="SocbjLumG32bId9NuuIr-5" value="&lt;b&gt;Navbar&lt;/b&gt;&lt;br&gt;Kullanıcı Giriş &lt;font color=&quot;#ff0000&quot;&gt;&lt;b&gt;Yapmamış&lt;/b&gt;&lt;/font&gt;" style="rounded=0;whiteSpace=wrap;html=1;" parent="SocbjLumG32bId9NuuIr-3" vertex="1">
          <mxGeometry y="90" width="120" height="60" as="geometry" />
        </mxCell>
        <mxCell id="SocbjLumG32bId9NuuIr-9" value="" style="group" parent="1" vertex="1" connectable="0">
          <mxGeometry x="894" y="240" width="120" height="150" as="geometry" />
        </mxCell>
        <mxCell id="SocbjLumG32bId9NuuIr-10" value="&lt;b style=&quot;border-color: var(--border-color);&quot;&gt;Kullanıcı Tüm Success&#39;ler&lt;/b&gt;&lt;br style=&quot;border-color: var(--border-color);&quot;&gt;&lt;font style=&quot;font-size: 10px;&quot;&gt;Kullanıcı grişi olmasa da girilen kullanıcının tüm successleri görüntülenir&lt;/font&gt;" style="rounded=0;whiteSpace=wrap;html=1;verticalAlign=top;" parent="SocbjLumG32bId9NuuIr-9" vertex="1">
          <mxGeometry width="120" height="90" as="geometry" />
        </mxCell>
        <mxCell id="SocbjLumG32bId9NuuIr-11" value="&lt;b&gt;Navbar&lt;/b&gt;&lt;br&gt;Kullanıcı Giriş &lt;font color=&quot;#ff0000&quot;&gt;&lt;b&gt;Yapmamış&lt;/b&gt;&lt;/font&gt;" style="rounded=0;whiteSpace=wrap;html=1;" parent="SocbjLumG32bId9NuuIr-9" vertex="1">
          <mxGeometry y="90" width="120" height="60" as="geometry" />
        </mxCell>
        <mxCell id="SocbjLumG32bId9NuuIr-18" style="edgeStyle=orthogonalEdgeStyle;rounded=0;orthogonalLoop=1;jettySize=auto;html=1;entryX=0.5;entryY=0;entryDx=0;entryDy=0;" parent="1" target="ErLo5owCoa9dXtRcaDhM-10" edge="1">
          <mxGeometry relative="1" as="geometry">
            <mxPoint x="750" y="170" as="sourcePoint" />
            <Array as="points">
              <mxPoint x="750" y="170" />
              <mxPoint x="750" y="200" />
              <mxPoint x="560" y="200" />
            </Array>
          </mxGeometry>
        </mxCell>
        <mxCell id="SocbjLumG32bId9NuuIr-19" style="edgeStyle=orthogonalEdgeStyle;rounded=0;orthogonalLoop=1;jettySize=auto;html=1;entryX=0.5;entryY=0;entryDx=0;entryDy=0;" parent="1" source="ErLo5owCoa9dXtRcaDhM-4" target="SocbjLumG32bId9NuuIr-10" edge="1">
          <mxGeometry relative="1" as="geometry">
            <Array as="points">
              <mxPoint x="750" y="200" />
              <mxPoint x="954" y="200" />
            </Array>
          </mxGeometry>
        </mxCell>
        <mxCell id="SocbjLumG32bId9NuuIr-20" style="edgeStyle=orthogonalEdgeStyle;rounded=0;orthogonalLoop=1;jettySize=auto;html=1;entryX=0.5;entryY=0;entryDx=0;entryDy=0;" parent="1" target="ErLo5owCoa9dXtRcaDhM-13" edge="1">
          <mxGeometry relative="1" as="geometry">
            <mxPoint x="750" y="170" as="sourcePoint" />
            <Array as="points">
              <mxPoint x="750" y="200" />
              <mxPoint x="690" y="200" />
            </Array>
          </mxGeometry>
        </mxCell>
        <mxCell id="SocbjLumG32bId9NuuIr-21" style="edgeStyle=orthogonalEdgeStyle;rounded=0;orthogonalLoop=1;jettySize=auto;html=1;entryX=0.5;entryY=0;entryDx=0;entryDy=0;" parent="1" target="SocbjLumG32bId9NuuIr-4" edge="1">
          <mxGeometry relative="1" as="geometry">
            <mxPoint x="750" y="170" as="sourcePoint" />
            <Array as="points">
              <mxPoint x="750" y="170" />
              <mxPoint x="750" y="200" />
              <mxPoint x="820" y="200" />
            </Array>
          </mxGeometry>
        </mxCell>
        <mxCell id="SocbjLumG32bId9NuuIr-23" style="edgeStyle=orthogonalEdgeStyle;rounded=0;orthogonalLoop=1;jettySize=auto;html=1;" parent="1" source="ErLo5owCoa9dXtRcaDhM-11" target="ErLo5owCoa9dXtRcaDhM-7" edge="1">
          <mxGeometry relative="1" as="geometry" />
        </mxCell>
        <mxCell id="SocbjLumG32bId9NuuIr-24" style="edgeStyle=orthogonalEdgeStyle;rounded=0;orthogonalLoop=1;jettySize=auto;html=1;" parent="1" source="ErLo5owCoa9dXtRcaDhM-14" target="ErLo5owCoa9dXtRcaDhM-7" edge="1">
          <mxGeometry relative="1" as="geometry" />
        </mxCell>
        <mxCell id="SocbjLumG32bId9NuuIr-25" value="" style="group" parent="1" vertex="1" connectable="0">
          <mxGeometry x="500" y="700" width="120" height="150" as="geometry" />
        </mxCell>
        <mxCell id="SocbjLumG32bId9NuuIr-26" value="&lt;b style=&quot;border-color: var(--border-color);&quot;&gt;Success Detay&lt;/b&gt;&lt;br style=&quot;border-color: var(--border-color);&quot;&gt;Kullanıcı grişi olmasa da başarılar görüntülenebilir." style="rounded=0;whiteSpace=wrap;html=1;verticalAlign=top;" parent="SocbjLumG32bId9NuuIr-25" vertex="1">
          <mxGeometry width="120" height="90" as="geometry" />
        </mxCell>
        <mxCell id="SocbjLumG32bId9NuuIr-27" value="&lt;b style=&quot;border-color: var(--border-color);&quot;&gt;Navbar&lt;/b&gt;&lt;br style=&quot;border-color: var(--border-color);&quot;&gt;Kullanıcı Giriş&amp;nbsp;&lt;br&gt;&lt;font style=&quot;border-color: var(--border-color);&quot; color=&quot;#66cc00&quot;&gt;&lt;b style=&quot;border-color: var(--border-color);&quot;&gt;Yapılmış&lt;/b&gt;&lt;/font&gt;" style="rounded=0;whiteSpace=wrap;html=1;" parent="SocbjLumG32bId9NuuIr-25" vertex="1">
          <mxGeometry y="90" width="120" height="60" as="geometry" />
        </mxCell>
        <mxCell id="SocbjLumG32bId9NuuIr-28" value="" style="group" parent="1" vertex="1" connectable="0">
          <mxGeometry x="634" y="700" width="120" height="150" as="geometry" />
        </mxCell>
        <mxCell id="SocbjLumG32bId9NuuIr-29" value="&lt;b style=&quot;border-color: var(--border-color);&quot;&gt;Kullanıcı Tüm Success&#39;ler&lt;/b&gt;&lt;br style=&quot;border-color: var(--border-color);&quot;&gt;&lt;font style=&quot;font-size: 10px;&quot;&gt;Kullanıcı grişi olmasa da girilen kullanıcının tüm successleri görüntülenir&lt;/font&gt;" style="rounded=0;whiteSpace=wrap;html=1;verticalAlign=top;" parent="SocbjLumG32bId9NuuIr-28" vertex="1">
          <mxGeometry width="120" height="90" as="geometry" />
        </mxCell>
        <mxCell id="SocbjLumG32bId9NuuIr-30" value="&lt;b style=&quot;border-color: var(--border-color);&quot;&gt;Navbar&lt;/b&gt;&lt;br style=&quot;border-color: var(--border-color);&quot;&gt;Kullanıcı Giriş&amp;nbsp;&lt;br style=&quot;border-color: var(--border-color);&quot;&gt;&lt;font style=&quot;border-color: var(--border-color);&quot; color=&quot;#66cc00&quot;&gt;&lt;b style=&quot;border-color: var(--border-color);&quot;&gt;Yapılmış&lt;/b&gt;&lt;/font&gt;" style="rounded=0;whiteSpace=wrap;html=1;" parent="SocbjLumG32bId9NuuIr-28" vertex="1">
          <mxGeometry y="90" width="120" height="60" as="geometry" />
        </mxCell>
        <mxCell id="SocbjLumG32bId9NuuIr-31" style="edgeStyle=orthogonalEdgeStyle;rounded=0;orthogonalLoop=1;jettySize=auto;html=1;entryX=0.5;entryY=0;entryDx=0;entryDy=0;" parent="1" source="ErLo5owCoa9dXtRcaDhM-8" target="SocbjLumG32bId9NuuIr-26" edge="1">
          <mxGeometry relative="1" as="geometry">
            <Array as="points">
              <mxPoint x="630" y="670" />
              <mxPoint x="560" y="670" />
            </Array>
          </mxGeometry>
        </mxCell>
        <mxCell id="SocbjLumG32bId9NuuIr-32" style="edgeStyle=orthogonalEdgeStyle;rounded=0;orthogonalLoop=1;jettySize=auto;html=1;exitX=0.5;exitY=1;exitDx=0;exitDy=0;entryX=0.5;entryY=0;entryDx=0;entryDy=0;" parent="1" source="ErLo5owCoa9dXtRcaDhM-8" target="SocbjLumG32bId9NuuIr-29" edge="1">
          <mxGeometry relative="1" as="geometry">
            <Array as="points">
              <mxPoint x="630" y="670" />
              <mxPoint x="694" y="670" />
            </Array>
          </mxGeometry>
        </mxCell>
        <mxCell id="SocbjLumG32bId9NuuIr-40" value="" style="group" parent="1" vertex="1" connectable="0">
          <mxGeometry x="770" y="700" width="120" height="150" as="geometry" />
        </mxCell>
        <mxCell id="SocbjLumG32bId9NuuIr-41" value="&lt;b style=&quot;border-color: var(--border-color);&quot;&gt;Kullanıcı Ayarları&lt;/b&gt;&lt;br style=&quot;border-color: var(--border-color);&quot;&gt;&lt;span style=&quot;background-color: initial;&quot;&gt;- Gece gündüz ayarı burada olacak.&lt;/span&gt;&lt;br&gt;&lt;div style=&quot;&quot;&gt;&lt;span style=&quot;background-color: initial;&quot;&gt;- Varsayılan gece olacak.&lt;/span&gt;&lt;/div&gt;" style="rounded=0;whiteSpace=wrap;html=1;verticalAlign=top;" parent="SocbjLumG32bId9NuuIr-40" vertex="1">
          <mxGeometry width="120" height="90" as="geometry" />
        </mxCell>
        <mxCell id="SocbjLumG32bId9NuuIr-42" value="&lt;b&gt;Navbar&lt;/b&gt;&lt;br&gt;Kullanıcı Giriş &lt;font color=&quot;#66cc00&quot;&gt;&lt;b&gt;Yapılmış&lt;/b&gt;&lt;/font&gt;" style="rounded=0;whiteSpace=wrap;html=1;" parent="SocbjLumG32bId9NuuIr-40" vertex="1">
          <mxGeometry y="90" width="120" height="60" as="geometry" />
        </mxCell>
        <mxCell id="SocbjLumG32bId9NuuIr-43" style="edgeStyle=orthogonalEdgeStyle;rounded=0;orthogonalLoop=1;jettySize=auto;html=1;entryX=0.5;entryY=0;entryDx=0;entryDy=0;" parent="1" target="SocbjLumG32bId9NuuIr-41" edge="1">
          <mxGeometry relative="1" as="geometry">
            <mxPoint x="630" y="635" as="sourcePoint" />
            <Array as="points">
              <mxPoint x="630" y="670" />
              <mxPoint x="830" y="670" />
            </Array>
          </mxGeometry>
        </mxCell>
        <mxCell id="SocbjLumG32bId9NuuIr-44" value="" style="group" parent="1" vertex="1" connectable="0">
          <mxGeometry x="905" y="700" width="120" height="150" as="geometry" />
        </mxCell>
        <mxCell id="SocbjLumG32bId9NuuIr-45" value="&lt;b style=&quot;border-color: var(--border-color);&quot;&gt;Yeni Bir Success Ekle&lt;/b&gt;&lt;br style=&quot;border-color: var(--border-color);&quot;&gt;" style="rounded=0;whiteSpace=wrap;html=1;verticalAlign=top;" parent="SocbjLumG32bId9NuuIr-44" vertex="1">
          <mxGeometry width="120" height="90" as="geometry" />
        </mxCell>
        <mxCell id="SocbjLumG32bId9NuuIr-46" value="&lt;b&gt;Navbar&lt;/b&gt;&lt;br&gt;Kullanıcı Giriş &lt;font color=&quot;#66cc00&quot;&gt;&lt;b&gt;Yapılmış&lt;/b&gt;&lt;/font&gt;" style="rounded=0;whiteSpace=wrap;html=1;" parent="SocbjLumG32bId9NuuIr-44" vertex="1">
          <mxGeometry y="90" width="120" height="60" as="geometry" />
        </mxCell>
        <mxCell id="SocbjLumG32bId9NuuIr-54" style="edgeStyle=orthogonalEdgeStyle;rounded=0;orthogonalLoop=1;jettySize=auto;html=1;exitX=0.5;exitY=1;exitDx=0;exitDy=0;entryX=0.5;entryY=0;entryDx=0;entryDy=0;" parent="1" source="ErLo5owCoa9dXtRcaDhM-8" target="SocbjLumG32bId9NuuIr-45" edge="1">
          <mxGeometry relative="1" as="geometry">
            <Array as="points">
              <mxPoint x="630" y="670" />
              <mxPoint x="965" y="670" />
            </Array>
          </mxGeometry>
        </mxCell>
        <mxCell id="SocbjLumG32bId9NuuIr-55" value="" style="group" parent="1" vertex="1" connectable="0">
          <mxGeometry x="1040" y="700" width="120" height="150" as="geometry" />
        </mxCell>
        <mxCell id="SocbjLumG32bId9NuuIr-56" value="&lt;b&gt;Success Güncelle veya Sil&lt;/b&gt;" style="rounded=0;whiteSpace=wrap;html=1;verticalAlign=top;" parent="SocbjLumG32bId9NuuIr-55" vertex="1">
          <mxGeometry width="120" height="90" as="geometry" />
        </mxCell>
        <mxCell id="SocbjLumG32bId9NuuIr-57" value="&lt;b&gt;Navbar&lt;/b&gt;&lt;br&gt;Kullanıcı Giriş &lt;font color=&quot;#66cc00&quot;&gt;&lt;b&gt;Yapılmış&lt;/b&gt;&lt;/font&gt;" style="rounded=0;whiteSpace=wrap;html=1;" parent="SocbjLumG32bId9NuuIr-55" vertex="1">
          <mxGeometry y="90" width="120" height="60" as="geometry" />
        </mxCell>
        <mxCell id="SocbjLumG32bId9NuuIr-58" style="edgeStyle=orthogonalEdgeStyle;rounded=0;orthogonalLoop=1;jettySize=auto;html=1;exitX=0.5;exitY=1;exitDx=0;exitDy=0;" parent="1" source="ErLo5owCoa9dXtRcaDhM-8" target="SocbjLumG32bId9NuuIr-56" edge="1">
          <mxGeometry relative="1" as="geometry">
            <Array as="points">
              <mxPoint x="630" y="670" />
              <mxPoint x="1100" y="670" />
            </Array>
          </mxGeometry>
        </mxCell>
        <mxCell id="SocbjLumG32bId9NuuIr-79" style="edgeStyle=orthogonalEdgeStyle;rounded=0;orthogonalLoop=1;jettySize=auto;html=1;entryX=0;entryY=0;entryDx=0;entryDy=0;" parent="1" source="SocbjLumG32bId9NuuIr-60" target="ErLo5owCoa9dXtRcaDhM-11" edge="1">
          <mxGeometry relative="1" as="geometry">
            <mxPoint x="100" y="330" as="targetPoint" />
            <Array as="points">
              <mxPoint x="100" y="330" />
            </Array>
          </mxGeometry>
        </mxCell>
        <mxCell id="SocbjLumG32bId9NuuIr-60" value="&lt;b style=&quot;border-color: var(--border-color);&quot;&gt;Kullanıcı Ayarları&lt;/b&gt;&lt;br style=&quot;border-color: var(--border-color);&quot;&gt;" style="rounded=0;whiteSpace=wrap;html=1;verticalAlign=top;" parent="1" vertex="1">
          <mxGeometry x="40" y="240" width="120" height="40" as="geometry" />
        </mxCell>
        <mxCell id="SocbjLumG32bId9NuuIr-80" style="edgeStyle=orthogonalEdgeStyle;rounded=0;orthogonalLoop=1;jettySize=auto;html=1;" parent="1" source="SocbjLumG32bId9NuuIr-63" edge="1">
          <mxGeometry relative="1" as="geometry">
            <mxPoint x="500" y="330" as="targetPoint" />
            <Array as="points">
              <mxPoint x="240" y="330" />
            </Array>
          </mxGeometry>
        </mxCell>
        <mxCell id="SocbjLumG32bId9NuuIr-63" value="&lt;b style=&quot;border-color: var(--border-color);&quot;&gt;Yeni Bir Success Ekle&lt;/b&gt;&lt;br style=&quot;border-color: var(--border-color);&quot;&gt;" style="rounded=0;whiteSpace=wrap;html=1;verticalAlign=top;" parent="1" vertex="1">
          <mxGeometry x="175" y="240" width="120" height="40" as="geometry" />
        </mxCell>
        <mxCell id="SocbjLumG32bId9NuuIr-81" style="edgeStyle=orthogonalEdgeStyle;rounded=0;orthogonalLoop=1;jettySize=auto;html=1;entryX=0;entryY=1;entryDx=0;entryDy=0;" parent="1" source="SocbjLumG32bId9NuuIr-66" target="ErLo5owCoa9dXtRcaDhM-10" edge="1">
          <mxGeometry relative="1" as="geometry">
            <mxPoint x="370" y="330" as="targetPoint" />
            <Array as="points">
              <mxPoint x="370" y="330" />
            </Array>
          </mxGeometry>
        </mxCell>
        <mxCell id="SocbjLumG32bId9NuuIr-66" value="&lt;b&gt;Success Güncelle veya Sil&lt;/b&gt;" style="rounded=0;whiteSpace=wrap;html=1;verticalAlign=top;" parent="1" vertex="1">
          <mxGeometry x="310" y="240" width="120" height="40" as="geometry" />
        </mxCell>
        <mxCell id="SocbjLumG32bId9NuuIr-71" value="&lt;span style=&quot;font-size: 14px;&quot;&gt;&lt;font color=&quot;#ff0000&quot; style=&quot;font-size: 14px;&quot;&gt;url üzerinden giriş yapılmak isterinse&lt;/font&gt;&lt;/span&gt;" style="text;html=1;strokeColor=none;fillColor=none;align=center;verticalAlign=middle;whiteSpace=wrap;rounded=0;fontSize=14;" parent="1" vertex="1">
          <mxGeometry x="110" y="100" width="120" height="36" as="geometry" />
        </mxCell>
        <mxCell id="SocbjLumG32bId9NuuIr-73" style="edgeStyle=orthogonalEdgeStyle;rounded=0;orthogonalLoop=1;jettySize=auto;html=1;exitX=0;exitY=0.5;exitDx=0;exitDy=0;" parent="1" source="ErLo5owCoa9dXtRcaDhM-4" target="SocbjLumG32bId9NuuIr-60" edge="1">
          <mxGeometry relative="1" as="geometry">
            <Array as="points">
              <mxPoint x="100" y="140" />
            </Array>
          </mxGeometry>
        </mxCell>
        <mxCell id="SocbjLumG32bId9NuuIr-74" style="edgeStyle=orthogonalEdgeStyle;rounded=0;orthogonalLoop=1;jettySize=auto;html=1;" parent="1" target="SocbjLumG32bId9NuuIr-63" edge="1">
          <mxGeometry relative="1" as="geometry">
            <mxPoint x="690" y="140" as="sourcePoint" />
            <Array as="points">
              <mxPoint x="690" y="140" />
              <mxPoint x="235" y="140" />
            </Array>
          </mxGeometry>
        </mxCell>
        <mxCell id="SocbjLumG32bId9NuuIr-75" style="edgeStyle=orthogonalEdgeStyle;rounded=0;orthogonalLoop=1;jettySize=auto;html=1;exitX=0;exitY=0.5;exitDx=0;exitDy=0;entryX=0.5;entryY=0;entryDx=0;entryDy=0;" parent="1" source="ErLo5owCoa9dXtRcaDhM-4" target="SocbjLumG32bId9NuuIr-66" edge="1">
          <mxGeometry relative="1" as="geometry">
            <Array as="points">
              <mxPoint x="370" y="140" />
            </Array>
          </mxGeometry>
        </mxCell>
        <mxCell id="SocbjLumG32bId9NuuIr-82" value="&lt;span style=&quot;font-size: 14px;&quot;&gt;&lt;font color=&quot;#ff0000&quot; style=&quot;font-size: 14px;&quot;&gt;&lt;b style=&quot;font-size: 14px;&quot;&gt;Kullanıcı Giriş&lt;/b&gt;&lt;br style=&quot;font-size: 14px;&quot;&gt;Sayfasına yönelt&lt;br style=&quot;font-size: 14px;&quot;&gt;&lt;/font&gt;&lt;/span&gt;" style="text;html=1;strokeColor=none;fillColor=none;align=center;verticalAlign=middle;whiteSpace=wrap;rounded=0;fontSize=14;" parent="1" vertex="1">
          <mxGeometry x="110" y="340" width="110" height="36" as="geometry" />
        </mxCell>
      </root>
    </mxGraphModel>
  </diagram>
  <diagram name="1 Home" id="2D76Zr_j65n54XOI6Yjl">
    <mxGraphModel dx="2462" dy="170" grid="1" gridSize="10" guides="1" tooltips="1" connect="1" arrows="1" fold="1" page="1" pageScale="1" pageWidth="1169" pageHeight="827" math="0" shadow="0">
      <root>
        <mxCell id="kmZhPCFx26Pm6KVQVoCC-0" />
        <mxCell id="kmZhPCFx26Pm6KVQVoCC-1" parent="kmZhPCFx26Pm6KVQVoCC-0" />
        <mxCell id="0sYfhKaxWaupq94KKP8w-16" value="" style="verticalLabelPosition=bottom;verticalAlign=top;html=1;shadow=0;dashed=0;strokeWidth=1;shape=mxgraph.android.phone2;strokeColor=#c0c0c0;" vertex="1" parent="kmZhPCFx26Pm6KVQVoCC-1">
          <mxGeometry x="400" y="940" width="200" height="390" as="geometry" />
        </mxCell>
        <mxCell id="0sYfhKaxWaupq94KKP8w-17" value="Home" style="text;html=1;strokeColor=none;fillColor=none;align=center;verticalAlign=middle;whiteSpace=wrap;rounded=0;fontStyle=5;fontSize=18;" vertex="1" parent="kmZhPCFx26Pm6KVQVoCC-1">
          <mxGeometry x="460" y="980" width="80" height="30" as="geometry" />
        </mxCell>
        <mxCell id="0sYfhKaxWaupq94KKP8w-18" value="Success" style="rounded=1;whiteSpace=wrap;html=1;" vertex="1" parent="kmZhPCFx26Pm6KVQVoCC-1">
          <mxGeometry x="440" y="1018" width="120" height="42" as="geometry" />
        </mxCell>
        <mxCell id="0sYfhKaxWaupq94KKP8w-42" value="&lt;b style=&quot;border-color: var(--border-color);&quot;&gt;Navbar&lt;/b&gt;&lt;br style=&quot;border-color: var(--border-color);&quot;&gt;User&lt;br&gt;&lt;font style=&quot;border-color: var(--border-color);&quot; color=&quot;#ff0000&quot;&gt;&lt;b style=&quot;border-color: var(--border-color);&quot;&gt;not logged in&lt;/b&gt;&lt;/font&gt;" style="text;html=1;strokeColor=default;fillColor=none;align=center;verticalAlign=middle;whiteSpace=wrap;rounded=0;dashed=1;dashPattern=1 1;" vertex="1" parent="kmZhPCFx26Pm6KVQVoCC-1">
          <mxGeometry x="630" y="1250" width="90" height="51" as="geometry" />
        </mxCell>
        <mxCell id="0sYfhKaxWaupq94KKP8w-58" value="" style="group" vertex="1" connectable="0" parent="kmZhPCFx26Pm6KVQVoCC-1">
          <mxGeometry x="410" y="1240" width="180" height="50" as="geometry" />
        </mxCell>
        <mxCell id="0sYfhKaxWaupq94KKP8w-38" value="" style="rounded=0;whiteSpace=wrap;html=1;fillColor=none;" vertex="1" parent="0sYfhKaxWaupq94KKP8w-58">
          <mxGeometry width="180" height="50" as="geometry" />
        </mxCell>
        <mxCell id="0sYfhKaxWaupq94KKP8w-57" value="" style="group" vertex="1" connectable="0" parent="0sYfhKaxWaupq94KKP8w-58">
          <mxGeometry x="7.5" y="8" width="162" height="34" as="geometry" />
        </mxCell>
        <mxCell id="0sYfhKaxWaupq94KKP8w-28" value="&lt;font size=&quot;1&quot; style=&quot;&quot;&gt;&lt;b style=&quot;font-size: 36px;&quot;&gt;+&lt;/b&gt;&lt;/font&gt;" style="ellipse;whiteSpace=wrap;html=1;aspect=fixed;" vertex="1" parent="0sYfhKaxWaupq94KKP8w-57">
          <mxGeometry x="132" y="2" width="30" height="30" as="geometry" />
        </mxCell>
        <mxCell id="0sYfhKaxWaupq94KKP8w-33" value="" style="group" vertex="1" connectable="0" parent="0sYfhKaxWaupq94KKP8w-57">
          <mxGeometry y="3" width="38.5" height="28" as="geometry" />
        </mxCell>
        <mxCell id="0sYfhKaxWaupq94KKP8w-23" value="" style="rounded=0;whiteSpace=wrap;html=1;strokeWidth=2;flipV=0;container=0;" vertex="1" parent="0sYfhKaxWaupq94KKP8w-33">
          <mxGeometry x="16.5" width="22" height="28" as="geometry" />
        </mxCell>
        <mxCell id="0sYfhKaxWaupq94KKP8w-30" value="" style="endArrow=classic;html=1;rounded=0;strokeWidth=2;" edge="1" parent="0sYfhKaxWaupq94KKP8w-33">
          <mxGeometry width="50" height="50" relative="1" as="geometry">
            <mxPoint y="15.135555555555584" as="sourcePoint" />
            <mxPoint x="33" y="15.135555555555584" as="targetPoint" />
          </mxGeometry>
        </mxCell>
        <mxCell id="0sYfhKaxWaupq94KKP8w-56" value="" style="group" vertex="1" connectable="0" parent="0sYfhKaxWaupq94KKP8w-57">
          <mxGeometry x="65.51751633986925" width="33.95764705882351" height="34" as="geometry" />
        </mxCell>
        <mxCell id="0sYfhKaxWaupq94KKP8w-20" value="" style="shape=image;aspect=fixed;image=data:image/png,iVBORw0KGgoAAAANSUhEUgAAAgAAAAIACAYAAAD0eNT6AAAABHNCSVQICAgIfAhkiAAAAAlwSFlzAAALEwAACxMBAJqcGAAAABl0RVh0U29mdHdhcmUAd3d3Lmlua3NjYXBlLm9yZ5vuPBoAACAASURBVHic7d15vO9Tvfjx1z6TwzmOeSrDMSREypCUFEpcIRkiUt1UF8VtLnXdpAEN4iq6FVEauOWqKGOprmRIUsjUkVkd83TG/ftjnf2zHXv4fj/v9Rm+38/r+XisR+z9XWu9P9+d73p/12d91gJJUr/ZCPgv4EbgCeAR4Brg08CqNcYlSZJKMBE4DpgPDI5SHgcOqitASZKU1wBwJqMP/IuXD9UTpiRJyukQOh/8B4EFwCtqiVSSJGUxFXiA7hKAQeBXNcQqSZIy2ZXuB/9BYCGweg3xqgEm1B2AJCls84L1BoDNcgai3mECIEm9b6VA3VWyRaGeYgIgSb1vYqDupGxRqKeYAEiS1EImAJIktZBTP5LUbm8BXlJ3EC3xFPAP0rbMvyFt0yxJUmGnUOwxQEt95bFFf7fnj/D3rIS3ACRJqt504D3ATcA76gjABECSpPpMB04Fjqq6YxMASZLqdyRpRqAyJgCSJDXDl4F1q+rMBECSpGZYCvhUVZ2ZAEiS1Bz7AqtW0ZEJgCRJzTEJ2LmKjkwAJElqli2r6MQEQJKkZplZRScmAJIkNUslY7MJgCRJzfJQFZ2YAEiS1Cw3VNGJCYAkSc3yiyo68ThgSWq37wGX1R1Ej3oT8PrMbd4AXJ25TUlSn4ocB3xwDfH2gw8CC8h/TPA+VV2AtwAkSercAHAc8EXyj6HnAGdlbnNU3gKQJKkzSwJnAnuU0PY1wDtKaHdUJgCSJI1vReAnwNYltH0F8AbgkRLaHpW3ACRJGtvawG8pZ/A/F9gBmF1C22MyAZAkaXRbAr8DXlhC298E9gKeLKHtcZkASJI0stcDlwCrZG53EDgKeBcwP3PbHXMNgCRJz/VO0uOVucfJuaTFft/L3G7XnAGQJOkZA8CnSNPzuQf/h4AdacDgD84ASJI0ZArwLeCAEtq+G9gFuK6EtgsxAZAkCZYGzib/1r4A1wP/AtxVQtuFmQBIktruecB5wEtKaPtiYE/g0RLaDnENgCSpzTYmbcRTxuB/Oumbf+MGfzABkCS11/akDX7WKKHtY0mr/eeV0HYW3gKQJLXRPsB3SAv/cpoH/BtwauZ2szMBkCS1zWuBM8g/+D8OvBk4P3O7pTABkCS1yfNJx+4ukbnde0mP+V2bud3SmABIktrkC8D0zG3eQFrsd0fmdkvlIkBJUlusC+ybuc1fA9vQY4M/mABIktpjb9JWv7n8CNiJtMVvzzEBkCS1xWsztvVFUkLxVMY2K+UaAElSW6yVoY0FwL8DJ2Voq1bOAEiS2mLFDG18mj4Y/MEEQJLUHg9maOPjpE2Eep4JgCSpLXKcxjcV+B5waIa2amUCIElqi19lamci6TbACfTwONqzgUuS1KX/ydzeYcBZpFmBnmMCIElqi+uBn2duc0/gEvIsMKyUCYAkqU0OB+ZkbvMVwGXkecywMiYAkqQ2uQU4CBjM3O5GwO+AzTK3WxoTAElS23wX+BD5k4DVSAsNd8zcbilMACRJbfRl4B3AvMztLg2cB7w7c7vZmQBIktrqdGBn4JHM7U4Cvg4ck7ndrEwAJEltdgnwKuDOEtr+KHAaMLmEtsNMACRJbXc98HLguhLafjtwPjCjhLZDTAAkSYJ7gNeQb7fA4V4L/BZYvYS2CzMBkCQpeRh4PWmv/9w2AX4DbFhC24WYAEiS9Iy5wAHAUSW0PRP4P+DVJbTdNRMASZKebRD4FPAuYH7mtpcDLgD2y9xu10wAJEka2TeBvYAnM7e7BHAmKcmojQmAJEmjOxfYDnggc7sDwH8CJ1LTWGwCIEnS2K4EtgFuLaHt9wFnU8ORwiYAkiSN7xZgK9IivtzeRJppqDQJMAGQJKkzD5Ke6T+7hLZ3JJ1PUBkTAEmSOvc0aQX/10po+2DgdSW0O6JJVXUkSWqkDUjfatWdc4C1SYcJ5XQ0cFHmNiVJfeoU0rPrlv4oL6IC3gKQJKlZdqmiExMASZKaZZMqOjEBkCSpWVasohMTAEmSmmWgik5MACRJapa/V9GJCYAkSc1ybRWdmABIktQcg8D5VXRkAiBJUnP8FLijio5MACRJaoZ5pCOCK2ECIElSM3wG+GNVnZkASJJUv9NI5wBUxgRAkqT6LACOAt5JWgBYGU8DlCSpeguBC4AjqHDafzgTAElqt5uAu+oOoiWeBO4DrgEuBGbVGYwJgCS124nAyXUHoeq5BkCSpBYyAZAkqYVMACRJaiETAEmSWsgEQJKkFjIBkCSphUwAJElqIRMASZJayARAkqQWMgGQJKmFTAAkSWohEwBJklpoYt0BSJLC3gBsUbDuZGBtYEXgTmBurqAkSVK5TgEGM5THgSOBJasNX5IkFZErARgqVwArVHoFqtykugOQ1LOmApsC6wJrAcsM+91s4D7gRuAG4MnKo1PEVsB3gF1ICYEkqeVeABwBXA7MobNvk/OA/wP+E9iw+pBbIfcMwFB5S5UXIUlqlgnAbsCvyTe9vB8uQs6prATg/6q8CElSMwwAewJ/ppzB5a/A7pVdTX8rKwFYCKxc4XVIkmq2K3At5Qwqi5dzgVWruay+NACcTXl/n72quxRJUl1eD/yeagb+4eVeYLsKrq/fbA9cRbl/m69UdjWSpMq9Avgt1Q/8w8s84G1lX2ifeDHwc6r5u1xW0TVJkiq0KvB90r3eOgf/obIQeG+pV9zb1gROBxZQ3d/kIdJtBklSn9gVeID6B/3FywLgzSVedy9aHvgC8BT1/E2eV/4lSpKqcCTN+dY/Unka2LK0q+8dU4EPAw9S799j67IvVJJUrgnAN6h/gO+k3AIsXc7b0HgTSOsh7qD+v8Mgad8GSVIPO4n6B5NuylfLeRsabWfgOup/74eXw0u9YklSqT5K/QNJt2U+acV7G2wBXEr97/lI5T9LvG5JUom2Iw2mdQ8kRcpFJbwfTbIu8AOavSbjy6VdvSSpNEsDd1L/IBIpr87+rtRvJeBEOj9Uqc5yYknvgWrkccBS/zsaWL3E9ucClwA3k3b0WwrYBNgBmJGpj6OBbTO1VbdpwPtJq/tzvT9lcx8ASeox65J22CvjW+F9wAeBFUfpeypwMPn2Gtgx+mbUbBLwbuAe6vkWH9lDwO2AJanHfIv8A8k/gI+Qvsl2YhXg8gz9XlHkDWiINwI3Us/AfxfwTuCYQBufyf+WSJLKshJpej7XQPIg8EmKPZs/nTynC76hQN91qvOMhYeBj5NuyUDaQrhoWx/J+q5Ikkp1OHkGkseATwPLBuNZn7TDXySWa+iN+9EbAOdQz8D/NHA8sMJiMUUeMdw/y7siSapEjmN9f046gCaX4zLE9KaM8eS2GvB1ylt3MVZZAJwJrD1KbLcH2nYrYEnqESsQPzHuDGBi5rhWBB4NxnU9aavcJplBelLhcaof+AdJeyVsNkZ8KxPbZ2Dlom+MJKlaexEbUH5PeY8JfyYY2yCwb0mxdWsK8D7qO1XxWjp7OmKPQB+Pdf2uSJJqczTFP/AXAhuXGNtypDPmIwPfTeSfnejGAOnI4luJXUfR8jfgADqfCflSoK/runljJEn1+hHFP/AvqCC+/wjEN1QOrCDOkWwHXNlhjLnLP4EPAEt0GXPkcKFvd9mXJKlGkQWAB1cQ33Ti0+Z/I03BV2Uj4KxgzEXLHOAEij2J8aJg328r0KckqSY3U/wD/2UVxZjjdMJ3VRDnGsBpxBdVFinzgVOJbeX8hWAMawX6liRVLHL4z4YVxTiNtJ1wZHC6g+6nwzu1HOmxxcgWupHyM+JrMSYCdwdiuD3YvySpYrdQ/EP/pRXG+f5AnEPl0MwxTQU+BMzOEFuR8nvynX54QDCWb2WKQ5JUkci2u2+tMM4liX1DHVxUf8kMsUwgLSy8IxhP0XIzsDf5djqcROxW0CDpDANJUg85l+If+mdVHOshgViHymHBGHYC/pghjiLlftIsxuTgNSzu7cG4/kG1iywlSRkcT/EP/jnAqhXGOgWYFYh3kPREQJGNizYHLg72XbQ8DhxFscOVxjOd9J5E4juhhLgkSSXbn9768D8oGO8g3U1XrwN8j9j2uEXLPOBkyk2yvpohzrG2FpYkNdRMYh/+TxF79Kxbk4nvqnd2B/2sABxD/FTCouUiyt1lEWB74onN9SXHKEkq0Q3EBoGTK473wGC8T5JW8I9kKeATwCPBPoqW31DNiXorEL+dMgi8o4JYJUkl+RSxQWAuaaq8KhOJJy3bLdbm0Mr+6JMGRcuN5F3ZP5YpwKUZYr6V8g6CkiRVYD3iu9dV/Rz4vsF4Pzmsrd2JJxRFy92kdQ1VHVg0QFrTkCP2us5YkCRlFDkUaJC0YO0FFcY7AbgtEO8PSFPtvwm0ESmPAEeQbjlUZYDYaX/Dy1+p95RFSVImWxEfFL5TccyRkwLrWtw3B/gKsGIJ78dYJpHOKch1HftVG74kqUznERsU5lPd+QAArwnGW2VZSNo4ad0y3ohxLEU6LyDXtVxCNWsVJEkV2Zz4Y2FV7g64RjDWqsrFpPe2DpsAf+ogxk7LY3jqnyT1pR8TGyAWAJtWFOvqwVjLLn8kbR1chwnAB8l/qyP3gUqSpIbYhPgTAf9bUaxbB+Msq8wirZCfUNqVj20D4FejxBYpv6a+a5IkVeAHxAaKhcCWFcT578E4c5fZpG/do20yVLalgM+RFhqWcX0HV3cpkqQ6bEBa0BcZLM6vIM6rgjHmKk8BxwLLlXu5Y9qdPDv7mQBIUsudQXzA2LbE+PbIEF+0LCAtely7xOsczzrkXeFvAiBJLbceaXOfyIBxSUmxPR+4KxhbtJxHWi9RlyVI+yA8SXXXbAIgSS3xTeKDxuJ77ketAVyXIa6i5coSrqlbOwI3U/21mwBIUkusRXxB2eXkWTk+ATgAuDcYT9FyK/Bm6t0A5/mkWw51JT8mAJLUIl+j/oFjJ+DaDHEUKQ8A7yOdoFeXyaSnCx6jnvfABECSWmg14veZnwZ2LtD3NsAvg30XLU8AxwDLFIg7p1eRdyc/EwBJUseOJ8+A+q4O+3slec6rL1LmAV8nJT51Whn4NvGtmU0AJEmFrQI8Tp5B5LfAXsD0xfqYuujnF2Xqp0j5MWkPhDpNIA20D1L/gG8CIEniWPIOJvOBvwBXAzcRf+QwmpS8It9bVdiWNGdzIxMASRIAKwCPUv8glLPcBOxN/UfbLgucQHz3RRMASVIpjqT+QShHuQd4NzAp79vTtQHg7cD91P+emABIkka1JHAb9Q9ERcsjwCeBabnfmAI2AX5Dtdf/O2KLK00AJKnFdqL+gbzbMpe0sn+VEt6Pbi0FfIryTuwbqTwIHA5MBE4JtGMCIEktdxr1D+qdlIWko43XLedt6No+VHuGwQLgG6T1G0NMACRJhU0FrqD+AX6s8n+k/QSaYD3g51R7/X9k5CcbTAAkSSHPB/5O/QP94uU6iu06WIYlgaNJOyFWdf0PA4eRpvtHYgIgSQpbC7iF+gf9QeBu0or6HAcP5fAG4HaqfQ/OZPwdDE0AJElZrEqabq5r4H+QtLJ/8Z0F67IW8L9U+x7cQOdHFJsASJKymUrayKbKfevnkFb2r1TB9XViMmmlfZUn9j1BeqJgiS7iNAGQJGV3IOUPeguA04E1K7qmTuwA3Eh1A/8gcA7F3gMTAElSdmdQ7qB3EfDSyq5mfKuRrrnKmY/bgF0CMZsASJKy2o3yBr2rgO2ru5RxTSJN9z9CdQP/XNJtluguhiYAkqRslqScRwLvIO3Z35SV/QBbAFdS3cA/SNq+d8NM8ZsASJKyOYq8A94/gY/S3eK2si1P+ga+gOoG/rtJ6ypyMgGQJGWxGmk1eo4BbwFwEjCj0isY2wTSLMRsqhv45wJfoJxHG00AJElZfJE8g97fgG0qjn08m1H9lseXARuXeE0mAJKksOXJ89z7DcDqFcc+lmVI0/3zqW7gn02aaRgo+dpMACRJYZ8gPvDdSEokmmAAOAC4j+oG/vnAV4FlK7g+MAGQJAVNAGYRG/weA15UcdyjWR+4kOoG/kHgGmCrKi5uGBMASVLIrsQHwLdXHfQIpgPHkRbeVTXwzwbeQz2PN5oASJJCziY2CP6O8u93j2dX4rMY3ZSFpJ0DV67g2kZjAiBJKmw6sUf/FgIvrzzqZ6wH/HyEuMos1wGvrOLixmECIEkq7C3EBsMLqg8ZSKcWfgp4apz4cpbHF/U5pfSr64wJgLo2qe4AJDXGm4P1j88SRXd2IG0ytEGFff4MOJS0TbIkST1tGeBpin+LvIlq7/2vCfw4EG/Ra3xtFRdXgDMA6lqTDuOQVJ/diO3RP3RkcNkmk84TuAHYo4L+AJ4EPgm8GLi4oj6l0nkLQBLAGwJ1B4Hv5wpkDNsCX6PaPQZ+BhxG2tJYkqS+Mgl4iOJTyL8uOb5Vge+SnjKoarr/b6THCXuFtwDUNW8BSHolsS1rz8kVyGKGTuy7CdifatYYzANOBDYBflpBf1JtvAUg6V+C9X+WJYpn25w03f+yEtoeza9Iq/tvqLBPSZJqcz2xlfE5TQSOBhYEYuq23E38Eci6eQtAXXMGQGq3NYmdU5/72/9XgPdmbnMsT5Gu/6EK+5QawTUAUrvtFKz/kyxRJHtQ7eAPcD4O/mopEwCp3SIJwEPA5bkCIU39V+1HNfQpNYIJgNRek0lb6Rb1C2B+plheRLXP90Pa+bCMBYxSTzABkNrrFcCMQP2cg+emGdvq1C+Ax2roV2oEEwCpvSLT/wuBC3MFQjqLoGpn19Cn1BgmAFJ7bRuoexXwz1yBALMzttUJp//VeiYAUntF7rn/IlsUSc7FhJ24EHi04j6lRjEBkNorsg9I7gTgLuCizG2O5awK+5IayQRAaq+7CtabTboFkNsRpL34yzYHp/8lEwCpxX5VsN5PSVv15nY1aSOghSW0PdxFwCMl9yE1ngmA1F5D+8d3YxA4uYRYhvw3sDdwf4l9uPpfktR6J9HdwTHfqCiuGcAhpNmGm4FbSAv3Pkw6gKjowTdziB193FQeBiRJ6soSpEG2k4HiF8DUesL8/1Yn3SIoOtidV33IlTABUNe8BSC12xzSITxHAE+M8pongaOAXUnPz9dpT2AgUN/pf2kRjwOWNB/4PPBV4I2k/QHWJB32czVwDs05MW+vQN15wLm5ApF6nQmApCGPAmfUHcQYViOdX1DUxTQnkZFq5y0ASb1ib2KfWU7/S8OYAEjqFU7/SxmZAEjqBasSm/6/FHgwUyxSXzABkNQL9gImBuo7/S8txgRAUi+ITP/PB36SKxCpX5gASGq6VYBtAvV/CfwjUyxS3zABkNR0e+L0v5SdCYCkpotM/y/A1f/SiEwAJDXZSsCrAvV/BTyQJxSpv5gASGqyPYntWOr0vzQKEwBJTRad/j8nVyBSvzEBkNRUKwKvDtT/NU7/S6PyMCCpPdYB3gxsDiwD3A9cCXyfZj4mtwexz6j/yRWIJEm9aAbwDdKU+OAIZQ5wFDClrgBHcQEjx9tJWUDaPrgtTqH4e3VwDfFKkkq2AnAdnQ0EPwOWqCfM51iBdIBP0UHtsupDrpUJgLrmGgCpv50JvLjD1+4CHFtiLN14I67+l0plAiD1r92B13dZ5zBgwxJi6VZk9f9C4Me5ApH6lQmA1L/eVaDOQMF6OS0P7BCofzlwT6ZYpL5lAiD1p2nAawvW3TZnIAXsDkwO1Hf6X+qACYDUn7an+IK+VXIGUsA+gbqDuPmP1BETAKk/dXvvf7h52aLo3nKk5KWoy4E7M8Ui9TUTAKk/7RSo+5dsUXRvN2L7Ebj5j9QhEwCp/6wPrBuoX+cz9NHpf1f/Sx0yAZD6T+TbP8DPs0TRvWUpvnAR4Arg75likfqeCYDUfyIJwF3UdwsgOv3v6n+pCyYAUn+ZSuwEvbq+/QPsHajr9L/UJRMAqb+8GlgqUP8XuQLp0tLEpv+vBO7IFIvUCiYAUn+JTP/PBy7JFUiXdifNXhTl9L/UJRMAqb9EEoDLgUdyBdKlyPQ/uPmP1DUTAKl/zAQ2CNSvc/p/x0D9q4DbM8UitYYJgNQ/dg7Wr2sB4K44/S9VzgRA6h+R6f/7gOtyBdKl6PS/q/+lAkwApP4wBdguUP8XpEfpqjad2LkF1wC3ZYpFahUTAKk/vJJ0L72oOu7/bwmcCiwZaMO9/6WCJtUdgKQsIvf/FwAX5wpkHFNJ9/wPJyUtUSYAUkEmAFJ/iNz/vxKYnSuQUawP/CtwELBCpjb/ANyaqS2pdUwApN63OrBxoH5Z0/9TSBv8vBvYARjI3L7f/qUAEwCp972e2OCaOwFYkzTovxNYNXPbw80psW1JkhrvbNIK/iLlH+RZDDyBtJf/WcC8QDzdlLmkmQXBKRR/Hw+uIV41gDMAUm+bROwQnQuAhYH6ywEHAocB6wTaKWIyKfl5OXBzxX1LPc8EQOptWwPLBuoXnf7fnDTN/1Zij/FFLUfawXAr4J81xiH1HBMAqbdFNtFZCFzYxeuXBvYDDgVeHOg3t3WAHwGvI90WkNQBNwKSelvk+f8/AA908LoNgROAe4Cv06zBf8i2wMl1ByH1EmcApN61EvCSQP2xDv9ZAtiNNM0fWWNQpX8F/gwcX3cgUi8wAZB6187EZvEuGOFn65E263knsGKg7bp8kXQ2wE/qDkRqOhMAqXdFdv97CPj9on+eAGxP2p53F/Jv2FOlCcB3gW2AP9Uci9RoJgBSbxp67r6oi0i3EA4EDiFt3tMvlibNAGwF3F9zLFJjmQBIvWlL0gBe1NbA3+nfz4C1gHNIMxtP1xyL1Eg+BSD1psjqf4A16N/Bf8jWwBn09i0NqTQmAFJvitz/b5O9gU/UHYTURCYAUu9ZHtii7iB6yKdJGxhJGsYEQOo9OwIT6w6iS3OBHwBvq6HvAeBbpHUTkhYxAZB6T/T+f5XuBo4F1iV9C3+0pjiWJD0ZsEZN/UuN0++LgKR+M0Da877JFgKXAv9NWok/f9jv6txGeFVSErAN8ESNcUiNYAIg9ZaXAqvVHcQo7ge+TTov4G+jvGaTyqIZ2UuAHwK7AwtqjkWqlbcApN7SxNX/lwH7kjYT+hijD/4QSwAGA3WH2wX4bKa2JEmqxK9JA2Hd5RHSN/1uBvRppG/dRft8L/Bkxmt4VxexN90pFH8fDq4hXklSF2aQVtPXOfBfQzohcFqB+LcK9LsAmA7sQ1pjkONa5gLbFbiOJjIBUNe8BSD1jq2ByTX0+xRwGmkA35y0uK/IIrqNAzHcDjwOnEW+6fvJi9pbJ1N7Uk8xAZB6x4YV9/dX4P3A84F/Ba4MtrdpoO7wk/2OBM4OxjJkReBnwDKZ2pN6hgmA1Dsih/90agFpQHwdKeH4Cuno4BwijwAOTwAGSRsK/X6U13ZrQ9JMgE9FqVVMAKTeMaPEtu8lbdizNrArcDFpoM0pcgvgusX+/SlgD+DOQJvD7Qgcn6ktSZKyOp28C/oWABeRDswp+9vvmsFYR7tP/1LS2oBc78mh2a64Wi4CVNecAZB6R64ZgIeBE4EXkKb6z+bZu/WVITL9/xij7y1wLfBW0pMBOZxA2idA6nsmAFLviCYA1wDvAZ4HHE5aWV+VSAJwPWPfjjgH+GSg/eEmAt8jdrtC6gkmAFLviCQAe5OOEP5v0v3zqkV2ALy+g9d8Hjgj0MdwM4BzSU8ISH3LBEDqHZEE4K/Zoigm8gjg4gsAR3MQ8KtAP8OtQ5pZWCJTe1LjmABIvSOSADyWLYruLUFab1DUn8Z/CQDzgL2AWwN9DbcNabtjqS+ZAEi9I5IAPJotiu5tTPGnDAbp7BbAkNnAbqSFjjm8DfhIprakRjEBkHrDJGCpQP06E4DIAsBZdB/7jaTTCXM92fB54I2Z2pIaw52vpN6wdKDuk5T/mN9Yyl4AOJILgA+RdjKMmgB8F3gV6bHDpplGbK3CUsBymWKpUq4dKiWp0dai+EYv99YQ73BDuwoWKUcH+z450Pfi5U5gtWA8RS1N2p/gGNITCn8FHhwhxraVx4G7gV+SNkN6J2k3S0nqG5tQ/EOy7icAHqB47HsH+55MLAFZvFxJdU8GTCNtcnQhaYFj3YNtL5WbSYdGedKjpJ73Sop/GF5VQ7xDnjdGXJ2U9TPEMAP4czCO4eXEDDGNF+9HSQsa6x5Ie70sBH4KvKyrv4AkNcjOFP8QvLSGeIe8foy4xitPkHbmy+EF5B1Q98gU13ATgcNITzDUPXD2YzmT+m7hSFJh+1D8g+9/a4h3yIfHiGu8cmXmWLYD5gbiGV4eJK3LyGUD4A+ZYrOMXh4G3tHh36Tv+Rig1Bt6dQ+AyCOAnW4A1Klfku+0v+WA75PWGEQdQLpN89IMbWlsywCnkk7WjDxW2xdMAKTeYAKQxzeAL2dqa2vSQrOII4HvANPj4agLB5IWhy5fdyCSNJ5PUXza83PVhwvAFGBOhzGOVF5TUlwTSQvDckwpz6X4PgfHZ4rBUrz8BVh5vD9Uv3IGQOoNvTgDsAEpCSiqjBkAgAXAWyi+ydBwk4Fv0v1n6ZHAv2foXzEbAecT22irZ5kASL2hFxOAyPT/XaSFdmV5DNgVuD9DWy8jJRSdeitwVIZ+lcfmwA9p4XjYuguWelQvngTYtPv/i7uD9DjfnAxtHUVnsx0bknYnVLPsTNp7oVVMAKTe0LYZgCoSAIDfkR5VjFqHdHLgWCaRnkWflqE/5fdpYLO6g6iSCYDUG9qWANyaLYrxnQT8OEM7/zbO7w/FR/2abBJpdsZxUVKjXE/xlc6b1xDvSoF4B0mHvHyAfDsBjmdZ4PZgzIPAFqO0vwLwSIb2LeWX1mwU5HHAUm/otRmAyLd/SNPkXyItrnsX5R/D+/Civn5LLOnYF7h6hJ8fTuxvOJangafG+P0AaWDrJxMp7/08AjiD9LSIJNXuIYp/o1mlhnjfH4h38TIP+ALV7Nx2YjDWP4zQ5nTyHt17FWnB2ktIMwtttSSwLilx+yGx+muyYAAAFRlJREFUPScWL/tWeB2SNKoBYD7FP8yWrD5kTgvEO1q5nXS4UJlmkB5BLBrjAp67u9yBgfaGl5tIjy5qZGsDPyDPe31RxbFL0oimU/yDbG4N8QJc00WM3Zbvko4ZLkt0wN5usfYuDrY3CPyElm5WU8C/ET/0aT7w/KoDl6TFPY/iH2T/rCHeSaR70mUlAIOkRYIfp5xFglOABwKx7T+srWWIzd4MDf5VLYbsF/sBC4m97++pPGpJWswGFP8Q+1sN8b4oEG+35VLKWeNwZiCmDw1rZ9fg9d2I3/yLOpbYe39W9SFXy+cdpeZr2xMA3dgO+DWweuZ2bwnUXW7YP28bjOND1LeTY687CrgnUP9VuQJpKhMAqfki3wD7PQEAWB+4hPQsfy4DgbpPDvvnDQPtXAmcF6jfdk8CxwTqr8qzk7m+YwIgNZ8zAONbn7Q4MDJwDxe5rTD8G/v6gXbODtRV8iPSWoCiXpgrkCYyAZCazwSgM7uQTtrLYa1A3eEJwGqBdi4I1FVyD7FjnyN/v8YzAZCar5cSgOXJfz++G8eRZ8OgmYG69y763wnEDv75e6CunnFHoG5fL8A0AZCar5cSgLq+/Q9ZhfFP5RvPALBmoP6sRf+7FMVvSTxFOjtAcfcF6k7PFkUDmQBIzWcC0J2Dg/VXpvgswiDPfOOMfL7OD9TVs80L1O3r/RdMAKTm66UEYNOK+xvJJqRtYYuaGaj7AGMfzCM1hgmA1Hy9lABsEqj7ULYoYPtA3cgCwMj9ZqlSJgBS8/VKAjCRtAtgUW8m3b9/IEMsGwXqzgzUrWPnRakQEwCp+SIrkavcRW49Yivw/0Q6h31D4L+p7/ltZwDUCiYAUvP1ygxAZAHgfcD9i/75QdJBLP8WaC/y/LYJgFrBBEBqvmUCdatMACILAP84ws+uCLQXOS54ZqDurEBdqVImAFLztWEG4LoRfnbvCD/r1MqkY4mLiMwAzArUlSplAiA1X68cBpQ7AZgNzC3Y3gRgpQL1ViS2+Yu796lnmABIzbbEolLEQuDxjLGMZVliu+eNdAtgkNgubkXWAcwM9PcPqnu/pTATAKnZItP/jxNbSd+NFxPb9vaWUX4XuQ1QZB3AzEB/LgBUTzEBkJqtDff//8LoW99GEoAiMwDe/1drmABIzdYrCUBkB8CR7v8PMQGQSmICIDVbryQAkUcAm5QAzAz05y0A9RQTAKnZeiEBmEBsC+CRFgAOMQGQSmICIDVbLyQA61L80blB4Poxfl91AhB5kmFWoK5UORMAqdl6IQGILAC8A3h4jN/fE2i726cAlie266IzAOopJgBSs0U2panqIKDIAsA/jfP7yD4Aq9DdZ1xkAeBDVH/0shRiAiA1W9Fn66G6TWleGqg71gJASEcDLyjY9mRghS5e7xMAahUTAKl/Fd1Gt1tbBeqOtQAQ0uD/QKD9btYBrB3oZ1agrlQLEwCp2QYDdedli2J065Cm2osaLwGA2DqAbhIAZwDUKiYAUrM1PQF4WaDuY3Q2cFa1HXAkAXABoHqOCYDUbJGTAP+ZLYrRvTxQ9090dlZBVY8Czgz0YwKgnmMCIDXbsoG6kanzTm0TqDveEwBDqkoAvAWgVjEBkJpt/UDdu7NFMbI1gM0C9a/u8HVVJADLAMsF+nEGQD3HBEBqrhnAtgXrDgJ/zxjLSN5I7DHFKzt8XRUJQOTb/yOkfQCknmICIDXXe4ClCta9hfI3AnpHoO5jwI0dvraKBGBmoI9ZgbpSbUwApGaaCrw/UP/aXIGMYl9iGwBdTucb/DR9BsDpf/UkEwCpmd5OscNshvwhUxwjWQ34SrCNn3fx2vvo7GmBkUyls3v7Mwu2DyYA6lEmAFLzTAQ+GGzj0hyBjGACcAaxzX+guwRgHjA70FcnidTMQPuzAnWl2pgASM2zL7BeoP4DlDcDcBTw2mAbtwI3d1mn7N0AvQWg1jEBkJplAPhYsI0LKD5lPpbtgY9naOfbBeqUvQ5gZqD9WYG6Um1MAKRm2Q3YONjG2TkCWczzgO+Tbk9EzAFOLVCvzO2Ap9PdqYGLcwZAPckEQGqWjwTr3wiclyOQYSYC3wFWztDWaRQbzMucAZgZaPtxqtlyWcrOBEBqjh2AVwTb+Cz5p/+PJk3/Rz0OfKZg3aYmALMCdaVamQBIzRG99/834Ic5AhlmJ+Cjmdr6FMW3Jy4zAVgz0LbT/+pZJgBSM2xJfHX9ccD8DLEMWZ009Z/jc+JXxPYOcAZAyswEQGqGI4L176XY6vrRTCIt+lsxQ1v3A/vR+c5/I2lqAuAMgHqWCYBUvw1Jq/8jjgeezhDLkM8SO+p3yELgraTd/CLuIR1wVMR0YOkxfj+zYLvgDIB6mAmAVL8jiP23+CBwSqZYAP4F+HCmtj4NXJShnTnAw4H6Y80CRDYBmhWoK9XKBECq19qknf8iTiLfyX+rA6cTO+Z3yC8pvup/JGXcBlgSWCnQrrcA1LNMAKR6fZh0v72oJ0gJQA6TgB+Q777//sTu+y+ujARgJsWTnaeAfxSsK9XOBECqzyqkU/8ivk6+QegY4JUZ2lkIHEBswB5JGecBzAy0OYvi6xKk2pkASPX5AGkKuqh5wAmZYtmFFE8ORwIXZ2pruDJmALz/r9YyAZDqsQzwnmAb3wb+Hg+FNch33/9S0kxCGco4D8AEQK1lAiDV4zBSElDUAuALGeKYTLrvHzkMZ8h95L/vP1xZawCKcgGgepoJgFS9pYD3Bds4C7glQyzHET9/ANKgvz/x5/3HYgIgZRRZfSypmHcTe/RsEDg2QxxvBA7P0A6kTYiOy9TWaCLrJdYDrh7h5y8KtHkQsAXpDIZrgD+SdzMmSVIfmQLcSRrEi5afZYhjbdIGQpE4LM8uc4ALgENJCd6MQFuPjv6nU5dOovjfITpT12jeApCq9VbSZjsRnwvWn0I6NXC5YDt6tinAjqQB507g1HrDkcZmAiBVZyLwkWAblwGXB9v4Iun0QZVnCWDPuoOQxmICIFVnL2D9YBufD9bfDXhvsA1JfcAEQKpO9Nv/H4ELA/XXBc4gz/P+knqcCYBUjV2AzYJtfIbiW88uQbrvH9l7QFIfMQGQqvGxYP2/AucE6n8Z2DwYg6Q+YgIglW9bYJtgG8eQDtkpYm/gkGD/kvqMCYBUvo8H698JfK9g3fWAbwT7l9SHTACkcr0EeH2wjeOAuQXqed9f0qhMAKRyfYLYqvsHKL6hzAnEFx5K6lMmAFJ5Xgi8KdjGV4AnC9Tbh/hxw5L6mAmAVJ6PEvtv7FHg5AL1vO8vaVwmAFI5VicdjxtxEvBwl3Wmko4KnhHsW1Kf8zhgqRwfJh0OU9STpHv43ToReGmg3/HcDfwE+ANwL+kEvDZaBZgJ/AvwcvwyJUkiHQX7BLGjZU8s0O/+wT7HKjcAb8RthEeyFnA6sIB877fHAefjccCSKjO0ZW/RMhdYs8s+NwAeC/Y7WjkJZws7sT0wGxOApjEBkFSJGcBDxD78T+uyz6WAPwX7HK1ENzFqmxeQHt00AWgOEwBJlfgYsQ/+BaRv8934VrDPXImIkleR1kaYADSDCYCk0k0F7iH2wX92l33uF+xvtPIAPkkQ8WVMAJrCBEBS6Q4lPvB2c2LfRsDjGfocqRzW9dVruBVIg7gJQP1MAEbhoytSHpOBDwXb+AVwTYevXZJ0QNC0YJ8jWUDxw4eUzAbOqzsIaSwmAFIebyE9Fx5xTBevPRnYNNjfaH4H/LOkttvkp3UHII3FBECKGyBt/BNxBXBZh699B/C2YH9juanEttvE91GNZgIgxe0BvCjYxmc6fN3GpHuaZbqv5Pbb4p66A5DGYgIgxUWflf8TcH4Hr5sG/JD03H+Zniq5/bbwfVSjmQBIMTsCWwTb+DxpxfF4vkZa+S9JYSYAUkz02/9twP908LqDgAODfUnS/2cCIBW3FfCaYBvHAPPHec3GFDsZUJJGZQIgFffJYP27ge+M85rpwFmUf99fUsuYAEjFbEQ6Cz7iS6Q948dyMrBhsB9Jeg4TAKmYTxL77+dB4BvjvOY9wAGBPiRpVCYAUvfWAfYOtnECaR//0WwCHB/sQ5JGZQIgde+jwKRA/SeAr47x+6H7/ksG+pCkMZkASN1ZlfjjeF8lHRYzmlOADYJ9SNKYTACk7nwYmBqoP4exH+k7BNg/0L4kdcQEQOrcCsC7g22cxuh7xG8GfDnY/pCnM7UjqU+ZAEidex/p/nxRC0iP/o1kaeB7wBKB9of8hfGfMJDUciYAUmemAYcG2/g+cOsovzsFeGGwfUgLDPdZ9L+SNCoTAKkzBwMrBuoPAseO8rv3AW8JtD3cIcANmdqS1MdMAKTxLQG8P9jGucCfR/j5FsAXgm0P+SZwRqa2JPU5EwBpfG8Hnhds47gRfrYs8EPy3Pf/M3B4hnYktYQJgDS2icAHg21cAvxusZ8NAN8i7SoY9Tjpvv+TGdqS1BImANLY9gVeEGzj8yP87HDgTcF2hxwC3JipLUktYQIgjW6AtO1vxFWkGYDhtmT0BYHd+jrjHyksSc9hAiCNblfSoTwRn1vs34fu+08JtgtwPfHFiZJaygRAGl302/+NwE+G/fsAcCqwdrBdeOa+/1MZ2pLUQpETzaQqrUHaKGc10qY8y5Tc34rAK4Jt3EE6O2DIC4A9gm0OOZv09MA03PRHUgEmAGqq9YDdge2AbUlb5faanRaVMrxjUVlA2vr3N8BPgV8Cc0vqU1IfMQFQk0whnYR3ELA1acpcY5sIvHhRORR4EDiddGyxJI3KBEBNMIl0yt7HSFP9Km55XBgoqQMmAKrb1sDJwKZ1ByJJbeJTAKrL0DP2v8HBX5Iq5wyA6rAM8CNgh7oDkaS2MgFQ1VYFzgdeWncgktRmJgCq0oqkx9Q2qDsQSWo71wCoKtOA83Dwl6RGMAFQVU4GXlZ3EJKkxARAVfhX4K11ByFJeoYJgMq2KvCluoOQJD2bCYDK9iXSEbiSpAYxAVCZNgX2qzsISdJz+RigyvQJ8h7oMx+4CvgbcD/tPPVuedKRyFvggT9NN7+mulJHTABUljWBPTO1NQv4LPBj0ml3SrN3WwGHAW/GkxOb6IlFZVqBuvdljkV6Dm8BqCwHEP//1yBwNGnvgG/i4D/cQuB3pFssWwG31xuORnFlxfWkjpkAqCz7B+vPA/YBjgTmxMPpa1eR9li4vO5A9BxnVlxP6pgJgMqwOrBRsI33Af+TIZa2mA3shjMBTXM68Jcu61wIXFRCLNKzmACoDNsF6/8Q+HqOQFpmNrAv6daJmmE+8Cbgnx2+/nbcNEsVMQFQGbYI1J1LenpAxVxFSqDUHDcDLweuGed1FwNbAw+UHpGECYDK8cJA3fOA23IF0lIn1h2AnuM20jqNvUm3tm4DHgL+CnwH2Al4HQ7+qpCPAaoM6wXqnpstivb6PekxMvcJaJaFpMHftS1qBGcAVIblAnV9/CluIXB13UFIajYTAJVheqDuvdmiaLd76g5AUrOZACi3CcCUQP2HcwXScg/VHYCkZjMBkPqTjwJKGpMJgCRJLWQCIElSC5kASJLUQiYAkiS1kAmAJEktZAIgSVILmQBIktRCJgCSJLWQCYAkSS1kAiBJUguZAEiS1EImAJIktZAJgCRJLWQCIElSC5kASJLUQiYAkiS1kAmAJEktNKnuAHrAssALgfWBpReVtpoLPAbcC9wIzAIW1hmQ1GMmAC8DNgNmAA8CVwJ/rDMotZMJwHMtCbwBeB2wPbBuveE02pPA5cCFwHnADfWGIzXa/sBngJkj/O4vwEeA86sMSFKyMfAN4GFg0FKoXAEcFGxDeXye4n+DI2qIt59NIH22jPe+LwSOqinGfnYSxf9beF8N8VbGGQB4ESkr3x0YqDmWXrfVoiLpGZ8lJcbjGQCOBO4HvlZqRBLtXgQ4DTgWuBZ4Iw7+kvLbGPhwl3WOBVYtIRbpWdqaAGwCXE265za55lgk9a/DgIld1pkOvKuEWKRnaWMCsC/we2CDugOR1Pd2Klhv56xRSCNoWwJwKHAmaaW/JJVpMvD8gnVnZoxDGlGbFgEeQloNKklVWIriX7LavN+IKtKWGYB9gf+qOwhJkpqiDQnAxsC3aMe1SpLUkX4fFKcBZ5Gm4iRJ0iL9ngD8B7Bh3UFIktQ0/ZwAbAR8oO4gJElqon5OAI7GTX4kSRpRvz4GuBFpe9+cZgHXAHcDT2VuuxcMACsDawGvAJaoNxxJUkS/JgCHkWd2YwHwbdL+AZ7X/YwZpMOT/gN4Qc2xSJIK6MdbAFOBfTK0cyPwEtIpXg7+z/Yo8B3SSYr/QTrGVJLUQ/oxAdgZWC7YxqXA1sCf4+H0tXmko5T3AObWHIskqQv9mADsGKz/V2BP4JEMsbTFT4B31x2EJKlz/ZgAbBeouwDYG3g4Uyxtcjrwg7qDkCR1pt8SgKWB9QP1TweuzxRLG30cmFN3EJKk8fVbArA+6XG1or6aK5CWmgWcX3cQkqTx9VsCsF6g7p3AtbkCabFz6w5AkjS+fksAlg3UvQYYzBVIi11TdwCSpPH1WwIwPVD3nmxRtNvddQcgSRpfvyUAke1pH80WRbtFn6CIrOGQJHWo3xKAyODh9L8kqTX6LQGQJEkdMAGQJKmFTAAkSWohEwBJklrIBECSpBYyAZAkqYVMACRJaiETAEmSWsgEQJKkFjIBkCSphUwAJElqIRMASZJayARAkqQWMgGQJKmFTAAkSWohEwBJklrIBECSpBYyAZAkqYVMACRJaiETAEmSWsgEQJKkFjIBkCSphUwAJElqIRMASZJayARAkqQWGqip34nAfovKZsAqNcYiSVIVngBuA84HvgrcVWcwdQy66wI/AjatoW9JkprgKeCjwH/VFcDEivtbF7gCWKfifiVJapLJwM6L/vmyOgKocgZgInA18JIK+5QkqckGgdcBl1TdcZWLAPfFwV+SpOEGgM/X0XGVCcB+FfYlSVKv2BJYv+pOq0wAtqiwL0mSeslmVXdYZQKwXIV9SZLUS1aousMqE4DZFfYlSVIv+UfVHVaZAFxdYV+SJPWSysfIKhOA71fYlyRJveL3wO1Vd1rlPgATgKuoYaGDJEkNNQjsAPyy6o6rnAFYCOwNPFBhn5IkNdmR1DD4Q/WnAd4OvBy4puJ+JUlqkieAQ4DP1BVA1WcBADwMfBO4CZgCLA0shUcTS5L626PADcCpwIHU9M1/yP8DPQ9J52AJrxwAAAAASUVORK5CYII=;" vertex="1" parent="0sYfhKaxWaupq94KKP8w-56">
          <mxGeometry x="3.7566013071895554" width="26.444444444444446" height="26.444444444444446" as="geometry" />
        </mxCell>
        <mxCell id="0sYfhKaxWaupq94KKP8w-21" value="success" style="text;html=1;strokeColor=none;fillColor=none;align=center;verticalAlign=middle;whiteSpace=wrap;rounded=0;fontStyle=1;fontSize=10;" vertex="1" parent="0sYfhKaxWaupq94KKP8w-56">
          <mxGeometry y="26.444444444444343" width="33.95764705882353" height="7.555555555555555" as="geometry" />
        </mxCell>
        <mxCell id="0sYfhKaxWaupq94KKP8w-59" style="edgeStyle=orthogonalEdgeStyle;rounded=0;orthogonalLoop=1;jettySize=auto;html=1;exitX=1;exitY=0.5;exitDx=0;exitDy=0;entryX=0;entryY=0.5;entryDx=0;entryDy=0;dashed=1;dashPattern=1 1;endArrow=none;endFill=0;" edge="1" parent="kmZhPCFx26Pm6KVQVoCC-1" source="0sYfhKaxWaupq94KKP8w-38" target="0sYfhKaxWaupq94KKP8w-42">
          <mxGeometry relative="1" as="geometry" />
        </mxCell>
        <mxCell id="0sYfhKaxWaupq94KKP8w-69" value="Success" style="rounded=1;whiteSpace=wrap;html=1;" vertex="1" parent="kmZhPCFx26Pm6KVQVoCC-1">
          <mxGeometry x="440" y="1078" width="120" height="42" as="geometry" />
        </mxCell>
        <mxCell id="0sYfhKaxWaupq94KKP8w-70" value="Success" style="rounded=1;whiteSpace=wrap;html=1;" vertex="1" parent="kmZhPCFx26Pm6KVQVoCC-1">
          <mxGeometry x="440" y="1140" width="120" height="42" as="geometry" />
        </mxCell>
        <mxCell id="0sYfhKaxWaupq94KKP8w-72" value="" style="shape=curlyBracket;whiteSpace=wrap;html=1;rounded=1;labelPosition=left;verticalLabelPosition=middle;align=right;verticalAlign=middle;dashed=1;dashPattern=1 1;" vertex="1" parent="kmZhPCFx26Pm6KVQVoCC-1">
          <mxGeometry x="340" y="1010" width="90" height="180" as="geometry" />
        </mxCell>
        <mxCell id="0sYfhKaxWaupq94KKP8w-73" value="All success are sorted by date" style="rounded=0;whiteSpace=wrap;html=1;dashed=1;dashPattern=1 1;" vertex="1" parent="kmZhPCFx26Pm6KVQVoCC-1">
          <mxGeometry x="240" y="1069" width="100" height="60" as="geometry" />
        </mxCell>
        <mxCell id="0sYfhKaxWaupq94KKP8w-54" value="&lt;b&gt;Logon&lt;/b&gt;" style="text;html=1;strokeColor=default;fillColor=none;align=center;verticalAlign=middle;whiteSpace=wrap;rounded=0;dashed=1;dashPattern=1 1;" vertex="1" parent="kmZhPCFx26Pm6KVQVoCC-1">
          <mxGeometry x="390" y="1350" width="50" height="26" as="geometry" />
        </mxCell>
        <mxCell id="0sYfhKaxWaupq94KKP8w-60" value="&lt;b&gt;Home&lt;/b&gt;" style="text;html=1;strokeColor=default;fillColor=none;align=center;verticalAlign=middle;whiteSpace=wrap;rounded=0;dashed=1;dashPattern=1 1;" vertex="1" parent="kmZhPCFx26Pm6KVQVoCC-1">
          <mxGeometry x="475" y="1350" width="50" height="26" as="geometry" />
        </mxCell>
        <mxCell id="0sYfhKaxWaupq94KKP8w-63" value="&lt;b&gt;Add Success&lt;/b&gt;" style="text;html=1;strokeColor=default;fillColor=none;align=center;verticalAlign=middle;whiteSpace=wrap;rounded=0;dashed=1;dashPattern=1 1;" vertex="1" parent="kmZhPCFx26Pm6KVQVoCC-1">
          <mxGeometry x="560" y="1350" width="80" height="26" as="geometry" />
        </mxCell>
        <mxCell id="WJsxLuuWrIpyITxAWNf2-1" style="edgeStyle=orthogonalEdgeStyle;rounded=0;orthogonalLoop=1;jettySize=auto;html=1;exitX=0.5;exitY=1;exitDx=0;exitDy=0;entryX=0.5;entryY=0;entryDx=0;entryDy=0;endArrow=none;endFill=0;dashed=1;dashPattern=1 1;" edge="1" parent="kmZhPCFx26Pm6KVQVoCC-1" source="0sYfhKaxWaupq94KKP8w-23" target="0sYfhKaxWaupq94KKP8w-54">
          <mxGeometry relative="1" as="geometry" />
        </mxCell>
        <mxCell id="WJsxLuuWrIpyITxAWNf2-2" style="edgeStyle=orthogonalEdgeStyle;rounded=0;orthogonalLoop=1;jettySize=auto;html=1;entryX=0.5;entryY=0;entryDx=0;entryDy=0;endArrow=none;endFill=0;dashed=1;dashPattern=1 1;" edge="1" parent="kmZhPCFx26Pm6KVQVoCC-1" source="0sYfhKaxWaupq94KKP8w-21" target="0sYfhKaxWaupq94KKP8w-60">
          <mxGeometry relative="1" as="geometry" />
        </mxCell>
        <mxCell id="WJsxLuuWrIpyITxAWNf2-3" style="edgeStyle=orthogonalEdgeStyle;rounded=0;orthogonalLoop=1;jettySize=auto;html=1;exitX=0.5;exitY=1;exitDx=0;exitDy=0;endArrow=none;endFill=0;dashed=1;dashPattern=1 1;" edge="1" parent="kmZhPCFx26Pm6KVQVoCC-1" source="0sYfhKaxWaupq94KKP8w-28" target="0sYfhKaxWaupq94KKP8w-63">
          <mxGeometry relative="1" as="geometry" />
        </mxCell>
        <mxCell id="0sYfhKaxWaupq94KKP8w-74" value="&lt;p style=&quot;line-height: 70%;&quot;&gt;1&lt;br&gt;&lt;u&gt;&lt;font style=&quot;font-size: 18px;&quot;&gt;Home&lt;/font&gt;&lt;/u&gt;&lt;/p&gt;" style="rounded=1;whiteSpace=wrap;html=1;fontStyle=1;fontSize=24;dashed=1;dashPattern=1 1;" vertex="1" parent="kmZhPCFx26Pm6KVQVoCC-1">
          <mxGeometry x="250" y="950" width="80" height="60" as="geometry" />
        </mxCell>
        <mxCell id="0sYfhKaxWaupq94KKP8w-75" value="/localhost:3000" style="rounded=0;whiteSpace=wrap;html=1;align=center;fontStyle=4;dashed=1;dashPattern=1 1;" vertex="1" parent="kmZhPCFx26Pm6KVQVoCC-1">
          <mxGeometry x="240" y="1020" width="100" height="25" as="geometry" />
        </mxCell>
        <mxCell id="6ICxn5BUXiIQS9PwmUD_-0" value="/localhost:3000/&lt;font color=&quot;#ff0000&quot;&gt;logon&lt;/font&gt;" style="rounded=0;whiteSpace=wrap;html=1;align=center;fontStyle=4;dashed=1;dashPattern=1 1;" vertex="1" parent="kmZhPCFx26Pm6KVQVoCC-1">
          <mxGeometry x="295" y="1410" width="125" height="20" as="geometry" />
        </mxCell>
        <mxCell id="6ICxn5BUXiIQS9PwmUD_-3" style="edgeStyle=orthogonalEdgeStyle;rounded=0;orthogonalLoop=1;jettySize=auto;html=1;entryX=0.5;entryY=0;entryDx=0;entryDy=0;" edge="1" parent="kmZhPCFx26Pm6KVQVoCC-1" source="0sYfhKaxWaupq94KKP8w-54" target="6ICxn5BUXiIQS9PwmUD_-0">
          <mxGeometry relative="1" as="geometry">
            <Array as="points">
              <mxPoint x="415" y="1390" />
              <mxPoint x="358" y="1390" />
            </Array>
          </mxGeometry>
        </mxCell>
        <mxCell id="6ICxn5BUXiIQS9PwmUD_-1" value="/localhost:3000" style="rounded=0;whiteSpace=wrap;html=1;align=center;fontStyle=4;dashed=1;dashPattern=1 1;" vertex="1" parent="kmZhPCFx26Pm6KVQVoCC-1">
          <mxGeometry x="438" y="1410" width="125" height="20" as="geometry" />
        </mxCell>
        <mxCell id="6ICxn5BUXiIQS9PwmUD_-2" value="/localhost:3000/&lt;font color=&quot;#ff0000&quot;&gt;logon&lt;/font&gt;" style="rounded=0;whiteSpace=wrap;html=1;align=center;fontStyle=4;dashed=1;dashPattern=1 1;" vertex="1" parent="kmZhPCFx26Pm6KVQVoCC-1">
          <mxGeometry x="580" y="1410" width="125" height="20" as="geometry" />
        </mxCell>
        <mxCell id="6ICxn5BUXiIQS9PwmUD_-5" style="edgeStyle=orthogonalEdgeStyle;rounded=0;orthogonalLoop=1;jettySize=auto;html=1;entryX=0.528;entryY=0.083;entryDx=0;entryDy=0;entryPerimeter=0;" edge="1" parent="kmZhPCFx26Pm6KVQVoCC-1" source="0sYfhKaxWaupq94KKP8w-63" target="6ICxn5BUXiIQS9PwmUD_-2">
          <mxGeometry relative="1" as="geometry">
            <Array as="points">
              <mxPoint x="600" y="1390" />
              <mxPoint x="646" y="1390" />
            </Array>
          </mxGeometry>
        </mxCell>
        <mxCell id="6ICxn5BUXiIQS9PwmUD_-8" value="" style="sketch=0;pointerEvents=1;shadow=0;dashed=0;html=1;strokeColor=none;fillColor=#505050;labelPosition=center;verticalLabelPosition=bottom;verticalAlign=top;outlineConnect=0;align=center;shape=mxgraph.office.concepts.link;rotation=0;" vertex="1" parent="kmZhPCFx26Pm6KVQVoCC-1">
          <mxGeometry x="405" y="1378" width="20" height="10" as="geometry" />
        </mxCell>
        <mxCell id="6ICxn5BUXiIQS9PwmUD_-11" value="" style="sketch=0;pointerEvents=1;shadow=0;dashed=0;html=1;strokeColor=none;fillColor=#505050;labelPosition=center;verticalLabelPosition=bottom;verticalAlign=top;outlineConnect=0;align=center;shape=mxgraph.office.concepts.link;rotation=0;" vertex="1" parent="kmZhPCFx26Pm6KVQVoCC-1">
          <mxGeometry x="490" y="1382" width="20" height="10" as="geometry" />
        </mxCell>
        <mxCell id="6ICxn5BUXiIQS9PwmUD_-12" value="" style="sketch=0;pointerEvents=1;shadow=0;dashed=0;html=1;strokeColor=none;fillColor=#505050;labelPosition=center;verticalLabelPosition=bottom;verticalAlign=top;outlineConnect=0;align=center;shape=mxgraph.office.concepts.link;rotation=0;" vertex="1" parent="kmZhPCFx26Pm6KVQVoCC-1">
          <mxGeometry x="590" y="1378" width="20" height="10" as="geometry" />
        </mxCell>
        <mxCell id="6ICxn5BUXiIQS9PwmUD_-4" style="edgeStyle=orthogonalEdgeStyle;rounded=0;orthogonalLoop=1;jettySize=auto;html=1;entryX=0.5;entryY=0;entryDx=0;entryDy=0;" edge="1" parent="kmZhPCFx26Pm6KVQVoCC-1" source="0sYfhKaxWaupq94KKP8w-60" target="6ICxn5BUXiIQS9PwmUD_-1">
          <mxGeometry relative="1" as="geometry" />
        </mxCell>
      </root>
    </mxGraphModel>
  </diagram>
</mxfile>
